Victorianna+ThinItalic.ufo
<glyph name="exclam" format="2">
  <advance width="426"/>
  <unicode hex="0021"/>
  <outline>
    <contour>
      <point x="261" y="-182" type="line"/>
      <point x="223" y="-183" type="line"/>
      <point x="218" y="127" type="line"/>
      <point x="256" y="128" type="line"/>
    </contour>
    <contour>
      <point x="256" y="1600" type="line"/>
      <point x="261" y="353" type="line"/>
      <point x="223" y="353" type="line"/>
      <point x="218" y="1600" type="line"/>
    </contour>
  </outline>
</glyph>
<glyph name="quotedbl" format="2">
  <advance width="580"/>
  <unicode hex="0022"/>
  <outline>
    <contour>
      <point x="605" y="1255" type="line"/>
      <point x="407" y="1085" type="line"/>
      <point x="382" y="1114" type="line"/>
      <point x="567" y="1273" type="line"/>
      <point x="567" y="1530" type="line"/>
      <point x="605" y="1530" type="line"/>
    </contour>
    <contour>
      <point x="452" y="1255" type="line"/>
      <point x="254" y="1085" type="line"/>
      <point x="229" y="1114" type="line"/>
      <point x="414" y="1273" type="line"/>
      <point x="414" y="1530" type="line"/>
      <point x="452" y="1530" type="line"/>
    </contour>
  </outline>
</glyph>
<glyph name="numbersign" format="2">
  <advance width="1297"/>
  <unicode hex="0023"/>
  <outline>
    <contour>
      <point x="893" y="681" type="line"/>
      <point x="464" y="681" type="line"/>
      <point x="230" y="3" type="line"/>
      <point x="194" y="16" type="line"/>
      <point x="424" y="681" type="line"/>
      <point x="166" y="681" type="line"/>
      <point x="166" y="719" type="line"/>
      <point x="437" y="719" type="line"/>
      <point x="506" y="918" type="line"/>
      <point x="166" y="918" type="line"/>
      <point x="166" y="956" type="line"/>
      <point x="519" y="956" type="line"/>
      <point x="751" y="1627" type="line"/>
      <point x="787" y="1614" type="line"/>
      <point x="559" y="956" type="line"/>
      <point x="989" y="956" type="line"/>
      <point x="1220" y="1627" type="line"/>
      <point x="1256" y="1614" type="line"/>
      <point x="1028" y="956" type="line"/>
      <point x="1284" y="956" type="line"/>
      <point x="1284" y="918" type="line"/>
      <point x="1015" y="918" type="line"/>
      <point x="946" y="719" type="line"/>
      <point x="1284" y="719" type="line"/>
      <point x="1284" y="681" type="line"/>
      <point x="933" y="681" type="line"/>
      <point x="699" y="3" type="line"/>
      <point x="664" y="16" type="line"/>
    </contour>
    <contour>
      <point x="546" y="918" type="line"/>
      <point x="477" y="719" type="line"/>
      <point x="906" y="719" type="line"/>
      <point x="975" y="918" type="line"/>
    </contour>
  </outline>
</glyph>
<glyph name="quotesingle" format="2">
  <advance width="443"/>
  <unicode hex="0027"/>
  <outline>
    <contour>
      <point x="452" y="1255" type="line"/>
      <point x="254" y="1085" type="line"/>
      <point x="229" y="1114" type="line"/>
      <point x="414" y="1273" type="line"/>
      <point x="414" y="1530" type="line"/>
      <point x="452" y="1530" type="line"/>
    </contour>
  </outline>
</glyph>
<glyph name="hyphen" format="2">
  <advance width="1058"/>
  <unicode hex="002D"/>
  <outline>
    <contour>
      <point x="131" y="800" type="line"/>
      <point x="142" y="837" type="line"/>
      <point x="956" y="837" type="line"/>
      <point x="945" y="800" type="line"/>
    </contour>
  </outline>
</glyph>
<glyph name="slash" format="2">
  <advance width="682"/>
  <unicode hex="002F"/>
  <outline>
    <contour>
      <point x="933" y="1627" type="line"/>
      <point x="965" y="1614" type="line"/>
      <point x="-84" y="3" type="line"/>
      <point x="-116" y="16" type="line"/>
    </contour>
  </outline>
</glyph>
<glyph name="one" format="2">
  <advance width="725"/>
  <unicode hex="0031"/>
  <outline>
    <contour>
      <point x="228" y="38" type="curve"/>
      <point x="415" y="38" type="line"/>
      <point x="404" y="0" type="line"/>
      <point x="54" y="0" type="line"/>
      <point x="53" y="0" type="line"/>
      <point x="66" y="38" type="line"/>
      <point x="160" y="38"/>
      <point x="258" y="65"/>
      <point x="288" y="157" type="curve" smooth="yes"/>
      <point x="721" y="1575" type="line"/>
      <point x="264" y="1248" type="line"/>
      <point x="246" y="1276" type="line"/>
      <point x="786" y="1662" type="line"/>
      <point x="326" y="157" type="line" smooth="yes"/>
      <point x="313" y="115"/>
      <point x="285" y="69"/>
    </contour>
  </outline>
</glyph>
<glyph name="two" format="2">
  <advance width="1292"/>
  <unicode hex="0032"/>
  <outline>
    <contour>
      <point x="868" y="0" type="line"/>
      <point x="-29" y="0" type="line"/>
      <point x="89" y="373"/>
      <point x="314" y="579"/>
      <point x="772" y="839" type="curve" smooth="yes"/>
      <point x="982" y="958"/>
      <point x="1235" y="1100"/>
      <point x="1306" y="1323" type="curve" smooth="yes"/>
      <point x="1367" y="1515"/>
      <point x="1224" y="1590"/>
      <point x="1061" y="1593" type="curve" smooth="yes"/>
      <point x="928" y="1593"/>
      <point x="796" y="1561"/>
      <point x="675" y="1516" type="curve"/>
      <point x="486" y="1304" type="line"/>
      <point x="458" y="1324" type="line"/>
      <point x="658" y="1546" type="line"/>
      <point x="798" y="1596"/>
      <point x="931" y="1631"/>
      <point x="1056" y="1631" type="curve" smooth="yes"/>
      <point x="1259" y="1633"/>
      <point x="1412" y="1536"/>
      <point x="1345" y="1323" type="curve" smooth="yes"/>
      <point x="1282" y="1126"/>
      <point x="1120" y="999"/>
      <point x="784" y="806" type="curve" smooth="yes"/>
      <point x="423" y="599"/>
      <point x="139" y="405"/>
      <point x="22" y="38" type="curve"/>
      <point x="866" y="38" type="line"/>
      <point x="1108" y="208" type="line"/>
      <point x="1125" y="180" type="line"/>
    </contour>
  </outline>
</glyph>
<glyph name="three" format="2">
  <advance width="1178"/>
  <unicode hex="0033"/>
  <outline>
    <contour>
      <point x="-26" y="243" type="curve"/>
      <point x="13" y="243" type="line"/>
      <point x="-26" y="131"/>
      <point x="59" y="24"/>
      <point x="230" y="24" type="curve" smooth="yes"/>
      <point x="511" y="24"/>
      <point x="929" y="287"/>
      <point x="1039" y="635" type="curve" smooth="yes"/>
      <point x="1141" y="959"/>
      <point x="920" y="1070"/>
      <point x="601" y="905" type="curve" smooth="yes"/>
      <point x="413" y="808" type="line"/>
      <point x="408" y="824" type="line"/>
      <point x="402" y="840" type="line"/>
      <point x="720" y="1005" type="line" smooth="yes"/>
      <point x="961" y="1130"/>
      <point x="1074" y="1213"/>
      <point x="1115" y="1340" type="curve" smooth="yes"/>
      <point x="1171" y="1515"/>
      <point x="1026" y="1598"/>
      <point x="877" y="1598" type="curve" smooth="yes"/>
      <point x="747" y="1599"/>
      <point x="600" y="1529"/>
      <point x="462" y="1399" type="curve"/>
      <point x="438" y="1422" type="line"/>
      <point x="566" y="1543"/>
      <point x="730" y="1636"/>
      <point x="889" y="1636" type="curve" smooth="yes"/>
      <point x="1057" y="1636"/>
      <point x="1212" y="1521"/>
      <point x="1155" y="1343" type="curve" smooth="yes"/>
      <point x="1117" y="1225"/>
      <point x="1020" y="1120"/>
      <point x="779" y="1004" type="curve"/>
      <point x="1050" y="1056"/>
      <point x="1159" y="890"/>
      <point x="1078" y="636" type="curve" smooth="yes"/>
      <point x="968" y="289"/>
      <point x="553" y="-15"/>
      <point x="216" y="-15" type="curve" smooth="yes"/>
      <point x="57" y="-15"/>
      <point x="-65" y="92"/>
    </contour>
  </outline>
</glyph>
<glyph name="four" format="2">
  <advance width="1350"/>
  <unicode hex="0034"/>
  <outline>
    <contour>
      <point x="880" y="596" type="line"/>
      <point x="87" y="596" type="line"/>
      <point x="1232" y="1904" type="line"/>
      <point x="1260" y="1885" type="line"/>
      <point x="165" y="635" type="line"/>
      <point x="893" y="635" type="line"/>
      <point x="1108" y="1311" type="line"/>
      <point x="1146" y="1311" type="line"/>
      <point x="931" y="635" type="line"/>
      <point x="1224" y="635" type="line"/>
      <point x="1211" y="596" type="line"/>
      <point x="918" y="596" type="line"/>
      <point x="803" y="235" type="line" smooth="yes"/>
      <point x="773" y="138"/>
      <point x="697" y="76"/>
      <point x="611" y="39" type="curve"/>
      <point x="1034" y="39" type="line"/>
      <point x="1022" y="0" type="line"/>
      <point x="397" y="0" type="line"/>
      <point x="410" y="39" type="line"/>
      <point x="568" y="43"/>
      <point x="722" y="96"/>
      <point x="765" y="235" type="curve" smooth="yes"/>
    </contour>
  </outline>
</glyph>
<glyph name="five" format="2">
  <advance width="1238"/>
  <unicode hex="0035"/>
  <outline>
    <contour>
      <point x="-142" y="-132" type="line"/>
      <point x="329" y="-141"/>
      <point x="885" y="190"/>
      <point x="1035" y="663" type="curve" smooth="yes"/>
      <point x="1136" y="982"/>
      <point x="882" y="1048"/>
      <point x="609" y="1048" type="curve" smooth="yes"/>
      <point x="480" y="1048"/>
      <point x="365" y="1028"/>
      <point x="312" y="1017" type="curve"/>
      <point x="503" y="1619" type="line"/>
      <point x="1409" y="1793" type="line"/>
      <point x="1405" y="1755" type="line"/>
      <point x="531" y="1588" type="line"/>
      <point x="365" y="1064" type="line"/>
      <point x="452" y="1078"/>
      <point x="538" y="1086"/>
      <point x="621" y="1086" type="curve" smooth="yes"/>
      <point x="897" y="1086"/>
      <point x="1183" y="1006"/>
      <point x="1074" y="663" type="curve" smooth="yes"/>
      <point x="916" y="168"/>
      <point x="327" y="-193"/>
      <point x="-154" y="-171" type="curve"/>
    </contour>
  </outline>
</glyph>
<glyph name="seven" format="2">
  <advance width="1238"/>
  <unicode hex="0037"/>
  <outline>
    <contour>
      <point x="301" y="1328" type="line"/>
      <point x="273" y="1345" type="line"/>
      <point x="490" y="1612" type="line"/>
      <point x="1529" y="1612" type="line"/>
      <point x="134" y="-212" type="line"/>
      <point x="94" y="-197" type="line"/>
      <point x="1449" y="1573" type="line"/>
      <point x="502" y="1573" type="line"/>
    </contour>
  </outline>
</glyph>
<glyph name="colon" format="2">
  <advance width="477"/>
  <unicode hex="003A"/>
  <outline>
    <contour>
      <point x="-28" y="111" type="curve" smooth="yes"/>
      <point x="-9" y="171"/>
      <point x="58" y="225"/>
      <point x="121" y="225" type="curve" smooth="yes"/>
      <point x="181" y="225"/>
      <point x="219" y="174"/>
      <point x="199" y="111" type="curve" smooth="yes"/>
      <point x="179" y="51"/>
      <point x="112" y="-2"/>
      <point x="49" y="-2" type="curve" smooth="yes"/>
      <point x="-11" y="-2"/>
      <point x="-48" y="48"/>
    </contour>
    <contour>
      <point x="87" y="474" type="curve" smooth="yes"/>
      <point x="106" y="534"/>
      <point x="173" y="588"/>
      <point x="236" y="588" type="curve" smooth="yes"/>
      <point x="296" y="588"/>
      <point x="334" y="537"/>
      <point x="314" y="474" type="curve" smooth="yes"/>
      <point x="295" y="414"/>
      <point x="227" y="361"/>
      <point x="164" y="361" type="curve" smooth="yes"/>
      <point x="104" y="361"/>
      <point x="67" y="411"/>
    </contour>
    <contour>
      <point x="160" y="111" type="curve" smooth="yes"/>
      <point x="173" y="154"/>
      <point x="150" y="187"/>
      <point x="109" y="187" type="curve" smooth="yes"/>
      <point x="68" y="187"/>
      <point x="23" y="152"/>
      <point x="10" y="111" type="curve" smooth="yes"/>
      <point x="-3" y="70"/>
      <point x="20" y="36"/>
      <point x="61" y="36" type="curve" smooth="yes"/>
      <point x="102" y="36"/>
      <point x="147" y="70"/>
    </contour>
    <contour>
      <point x="176" y="399" type="curve" smooth="yes"/>
      <point x="217" y="399"/>
      <point x="262" y="433"/>
      <point x="275" y="474" type="curve" smooth="yes"/>
      <point x="288" y="515"/>
      <point x="265" y="549"/>
      <point x="224" y="549" type="curve" smooth="yes"/>
      <point x="183" y="549"/>
      <point x="138" y="515"/>
      <point x="125" y="474" type="curve" smooth="yes"/>
      <point x="112" y="433"/>
      <point x="135" y="399"/>
    </contour>
  </outline>
</glyph>
<glyph name="less" format="2">
  <advance width="580"/>
  <unicode hex="003C"/>
  <outline>
    <contour>
      <point x="188" y="850" type="line"/>
      <point x="701" y="1239" type="line"/>
      <point x="723" y="1207" type="line"/>
      <point x="242" y="842" type="line"/>
      <point x="486" y="484" type="line"/>
      <point x="454" y="460" type="line"/>
    </contour>
  </outline>
</glyph>
<glyph name="question" format="2">
  <advance width="1160"/>
  <unicode hex="003F"/>
  <outline>
    <contour>
      <point x="220" y="1200" type="line"/>
      <point x="313" y="1490"/>
      <point x="584" y="1628"/>
      <point x="869" y="1628" type="curve" smooth="yes"/>
      <point x="1258" y="1628"/>
      <point x="1334" y="1440"/>
      <point x="1226" y="1053" type="curve"/>
      <point x="911" y="952"/>
      <point x="585" y="693"/>
      <point x="509" y="395" type="curve"/>
      <point x="470" y="395" type="line"/>
      <point x="565" y="722"/>
      <point x="852" y="959"/>
      <point x="1195" y="1080" type="curve"/>
      <point x="1305" y="1473"/>
      <point x="1169" y="1590"/>
      <point x="857" y="1590" type="curve" smooth="yes"/>
      <point x="642" y="1590"/>
      <point x="361" y="1481"/>
      <point x="262" y="1210" type="curve"/>
      <point x="423" y="1049" type="line"/>
      <point x="393" y="1026" type="line"/>
    </contour>
    <contour>
      <point x="390" y="127" type="line"/>
      <point x="428" y="128" type="line"/>
      <point x="336" y="-182" type="line"/>
      <point x="296" y="-183" type="line"/>
    </contour>
  </outline>
</glyph>
<glyph name="D" format="2">
  <advance width="1287"/>
  <unicode hex="0044"/>
  <outline>
    <contour>
      <point x="972" y="1612" type="line" smooth="yes"/>
      <point x="1253" y="1612"/>
      <point x="1347" y="1421"/>
      <point x="1347" y="1178" type="curve" smooth="yes"/>
      <point x="1347" y="792"/>
      <point x="1123" y="3"/>
      <point x="567" y="3" type="curve" smooth="yes"/>
      <point x="-39" y="0" type="line"/>
      <point x="-40" y="38" type="line"/>
      <point x="82" y="38" type="line"/>
      <point x="552" y="1575" type="line"/>
      <point x="443" y="1575" type="line"/>
      <point x="443" y="1612" type="line"/>
    </contour>
    <contour>
      <point x="567" y="41" type="line" smooth="yes"/>
      <point x="1088" y="41"/>
      <point x="1308" y="807"/>
      <point x="1308" y="1178" type="curve" smooth="yes"/>
      <point x="1308" y="1420"/>
      <point x="1206" y="1574"/>
      <point x="969" y="1574" type="curve" smooth="yes"/>
      <point x="592" y="1574" type="line"/>
      <point x="121" y="39" type="line"/>
    </contour>
  </outline>
</glyph>
<glyph name="G" format="2">
  <advance width="1322"/>
  <unicode hex="0047"/>
  <outline>
    <contour>
      <point x="1154" y="1193" type="line"/>
      <point x="1125" y="1217" type="line"/>
      <point x="1314" y="1439" type="line"/>
      <point x="1257" y="1562"/>
      <point x="1161" y="1592"/>
      <point x="1029" y="1592" type="curve" smooth="yes"/>
      <point x="528" y="1592"/>
      <point x="138" y="878"/>
      <point x="138" y="379" type="curve" smooth="yes"/>
      <point x="138" y="155"/>
      <point x="269" y="39"/>
      <point x="547" y="23" type="curve"/>
      <point x="907" y="23"/>
      <point x="1098" y="396"/>
      <point x="1220" y="696" type="curve"/>
      <point x="981" y="696" type="line"/>
      <point x="981" y="734" type="line"/>
      <point x="1276" y="734" type="line"/>
      <point x="1129" y="131"/>
      <point x="869" y="-486"/>
      <point x="546" y="-486" type="curve" smooth="yes"/>
      <point x="389" y="-486"/>
      <point x="265" y="-394"/>
      <point x="265" y="-243" type="curve" smooth="yes"/>
      <point x="265" y="-220"/>
      <point x="268" y="-196"/>
      <point x="279" y="-163" type="curve"/>
      <point x="463" y="-67" type="line"/>
      <point x="481" y="-100" type="line"/>
      <point x="311" y="-189" type="line"/>
      <point x="306" y="-208"/>
      <point x="303" y="-226"/>
      <point x="303" y="-244" type="curve" smooth="yes"/>
      <point x="303" y="-369"/>
      <point x="418" y="-448"/>
      <point x="546" y="-448" type="curve" smooth="yes"/>
      <point x="820" y="-448"/>
      <point x="1065" y="103"/>
      <point x="1171" y="493" type="curve"/>
      <point x="1012" y="167"/>
      <point x="801" y="-15"/>
      <point x="547" y="-15" type="curve" smooth="yes"/>
      <point x="289" y="-15"/>
      <point x="100" y="99"/>
      <point x="100" y="379" type="curve" smooth="yes"/>
      <point x="100" y="846"/>
      <point x="473" y="1630"/>
      <point x="1029" y="1630" type="curve" smooth="yes"/>
      <point x="1180" y="1630"/>
      <point x="1289" y="1593"/>
      <point x="1356" y="1430" type="curve"/>
    </contour>
  </outline>
</glyph>
<glyph name="Q" format="2">
  <advance width="1374"/>
  <unicode hex="0051"/>
  <outline>
    <contour>
      <point x="1015" y="1616" type="curve" smooth="yes"/>
      <point x="1281" y="1616"/>
      <point x="1424" y="1380"/>
      <point x="1424" y="1116" type="curve" smooth="yes"/>
      <point x="1424" y="667"/>
      <point x="1114" y="257"/>
      <point x="740" y="26" type="curve" smooth="yes"/>
      <point x="551" y="-91"/>
      <point x="355" y="-199"/>
      <point x="146" y="-292" type="curve"/>
      <point x="246" y="-388"/>
      <point x="332" y="-447"/>
      <point x="436" y="-447" type="curve" smooth="yes"/>
      <point x="693" y="-447"/>
      <point x="958" y="-364"/>
      <point x="1149" y="-178" type="curve"/>
      <point x="1177" y="-202" type="line"/>
      <point x="988" y="-391"/>
      <point x="715" y="-484"/>
      <point x="436" y="-484" type="curve" smooth="yes"/>
      <point x="307" y="-484"/>
      <point x="204" y="-399"/>
      <point x="107" y="-308" type="curve"/>
      <point x="40" y="-338"/>
      <point x="-40" y="-357"/>
      <point x="-79" y="-357" type="curve" smooth="yes"/>
      <point x="-113" y="-357"/>
      <point x="-150" y="-343"/>
      <point x="-150" y="-302" type="curve" smooth="yes"/>
      <point x="-150" y="-253"/>
      <point x="-105" y="-161"/>
      <point x="-43" y="-161" type="curve" smooth="yes"/>
      <point x="20" y="-161"/>
      <point x="72" y="-223"/>
      <point x="116" y="-264" type="curve"/>
      <point x="321" y="-176"/>
      <point x="518" y="-66"/>
      <point x="716" y="56" type="curve" smooth="yes"/>
      <point x="1069" y="274"/>
      <point x="1385" y="661"/>
      <point x="1385" y="1113" type="curve" smooth="yes"/>
      <point x="1385" y="1336"/>
      <point x="1280" y="1578"/>
      <point x="1015" y="1578" type="curve" smooth="yes"/>
      <point x="535" y="1578"/>
      <point x="146" y="913"/>
      <point x="146" y="443" type="curve" smooth="yes"/>
      <point x="146" y="284"/>
      <point x="220" y="72"/>
      <point x="405" y="40" type="curve"/>
      <point x="402" y="2" type="line"/>
      <point x="198" y="40"/>
      <point x="108" y="252"/>
      <point x="108" y="447" type="curve" smooth="yes"/>
      <point x="108" y="910"/>
      <point x="502" y="1616"/>
    </contour>
    <contour>
      <point x="-78" y="-321" type="curve" smooth="yes"/>
      <point x="-42" y="-321"/>
      <point x="39" y="-299"/>
      <point x="77" y="-279" type="curve"/>
      <point x="20" y="-226"/>
      <point x="-19" y="-199"/>
      <point x="-41" y="-199" type="curve" smooth="yes"/>
      <point x="-77" y="-199"/>
      <point x="-113" y="-269"/>
      <point x="-113" y="-300" type="curve" smooth="yes"/>
      <point x="-113" y="-317"/>
      <point x="-95" y="-321"/>
    </contour>
  </outline>
</glyph>
<glyph name="R" format="2">
  <advance width="1426"/>
  <unicode hex="0052"/>
  <outline>
    <contour>
      <point x="1057" y="1612" type="line" smooth="yes"/>
      <point x="1238" y="1612"/>
      <point x="1456" y="1511"/>
      <point x="1456" y="1292" type="curve" smooth="yes"/>
      <point x="1456" y="955"/>
      <point x="1141" y="698"/>
      <point x="811" y="698" type="curve" smooth="yes"/>
      <point x="631" y="698" type="line"/>
      <point x="706" y="628"/>
      <point x="792" y="512"/>
      <point x="891" y="350" type="curve" smooth="yes"/>
      <point x="996" y="178"/>
      <point x="1074" y="40"/>
      <point x="1299" y="37" type="curve"/>
      <point x="1299" y="-1" type="line"/>
      <point x="1067" y="-1"/>
      <point x="977" y="138"/>
      <point x="859" y="330" type="curve" smooth="yes"/>
      <point x="742" y="520"/>
      <point x="696" y="585"/>
      <point x="569" y="701" type="curve"/>
      <point x="578" y="736" type="line"/>
      <point x="811" y="736" type="line" smooth="yes"/>
      <point x="1114" y="736"/>
      <point x="1418" y="965"/>
      <point x="1418" y="1292" type="curve" smooth="yes"/>
      <point x="1418" y="1478"/>
      <point x="1226" y="1574"/>
      <point x="1057" y="1574" type="curve" smooth="yes"/>
      <point x="623" y="1574" type="line"/>
      <point x="153" y="38" type="line"/>
      <point x="287" y="38" type="line"/>
      <point x="287" y="0" type="line"/>
      <point x="-40" y="0" type="line"/>
      <point x="-40" y="38" type="line"/>
      <point x="113" y="38" type="line"/>
      <point x="584" y="1575" type="line"/>
      <point x="474" y="1575" type="line"/>
      <point x="474" y="1612" type="line"/>
    </contour>
  </outline>
</glyph>
<glyph name="X" format="2">
  <advance width="1650"/>
  <unicode hex="0058"/>
  <outline>
    <contour>
      <point x="1679" y="1629" type="curve" smooth="yes"/>
      <point x="1747" y="1629"/>
      <point x="1794" y="1572"/>
      <point x="1825" y="1512" type="curve"/>
      <point x="1790" y="1497" type="line"/>
      <point x="1755" y="1560"/>
      <point x="1715" y="1592"/>
      <point x="1679" y="1592" type="curve" smooth="yes"/>
      <point x="1626" y="1592"/>
      <point x="1561" y="1529"/>
      <point x="1486" y="1442" type="curve" smooth="yes"/>
      <point x="945" y="810" type="line"/>
      <point x="1244" y="134" type="line" smooth="yes"/>
      <point x="1280" y="54"/>
      <point x="1316" y="23"/>
      <point x="1355" y="23" type="curve" smooth="yes"/>
      <point x="1402" y="23"/>
      <point x="1452" y="66"/>
      <point x="1503" y="154" type="curve"/>
      <point x="1535" y="135" type="line"/>
      <point x="1476" y="35"/>
      <point x="1416" y="-15"/>
      <point x="1352" y="-15" type="curve" smooth="yes"/>
      <point x="1299" y="-15"/>
      <point x="1254" y="19"/>
      <point x="1214" y="108" type="curve" smooth="yes"/>
      <point x="918" y="779" type="line"/>
      <point x="326" y="115" type="line" smooth="yes"/>
      <point x="248" y="27"/>
      <point x="178" y="-15"/>
      <point x="117" y="-15" type="curve" smooth="yes"/>
      <point x="29" y="-15"/>
      <point x="-29" y="89"/>
      <point x="-40" y="167" type="curve"/>
      <point x="-3" y="173" type="line"/>
      <point x="5" y="100"/>
      <point x="53" y="23"/>
      <point x="119" y="23" type="curve" smooth="yes"/>
      <point x="168" y="23"/>
      <point x="228" y="61"/>
      <point x="298" y="140" type="curve" smooth="yes"/>
      <point x="900" y="817" type="line"/>
      <point x="711" y="1246"/>
      <point x="597" y="1507"/>
      <point x="566" y="1586" type="curve"/>
      <point x="503" y="1575"/>
      <point x="441" y="1557"/>
      <point x="355" y="1518" type="curve"/>
      <point x="337" y="1551" type="line"/>
      <point x="407" y="1586"/>
      <point x="487" y="1612"/>
      <point x="592" y="1630" type="curve"/>
      <point x="602" y="1588"/>
      <point x="715" y="1329"/>
      <point x="928" y="848" type="curve"/>
      <point x="1455" y="1465" type="line" smooth="yes"/>
      <point x="1538" y="1562"/>
      <point x="1611" y="1629"/>
    </contour>
  </outline>
</glyph>
<glyph name="bracketleft" format="2">
  <advance width="546"/>
  <unicode hex="005B"/>
  <outline>
    <contour>
      <point x="379" y="-1" type="line"/>
      <point x="48" y="-1" type="line"/>
      <point x="541" y="1612" type="line"/>
      <point x="872" y="1612" type="line"/>
      <point x="860" y="1574" type="line"/>
      <point x="567" y="1574" type="line"/>
      <point x="98" y="37" type="line"/>
      <point x="391" y="37" type="line"/>
    </contour>
  </outline>
</glyph>
<glyph name="bracketright" format="2">
  <advance width="580"/>
  <unicode hex="005D"/>
  <outline>
    <contour>
      <point x="346" y="1612" type="line"/>
      <point x="676" y="1612" type="line"/>
      <point x="183" y="0" type="line"/>
      <point x="-148" y="0" type="line"/>
      <point x="-136" y="38" type="line"/>
      <point x="157" y="38" type="line"/>
      <point x="627" y="1574" type="line"/>
      <point x="334" y="1574" type="line"/>
    </contour>
  </outline>
</glyph>
<glyph name="underscore" format="2">
  <advance width="1058"/>
  <unicode hex="005F"/>
  <outline>
    <contour>
      <point x="-12" y="-1" type="line"/>
      <point x="-12" y="37" type="line"/>
      <point x="802" y="37" type="line"/>
      <point x="802" y="-1" type="line"/>
    </contour>
  </outline>
</glyph>
<glyph name="b" format="2">
  <advance width="1019"/>
  <unicode hex="0062"/>
  <outline>
    <contour>
      <point x="959" y="746" type="curve" smooth="yes"/>
      <point x="959" y="449"/>
      <point x="701" y="-15"/>
      <point x="367" y="-15" type="curve" smooth="yes"/>
      <point x="200" y="-15"/>
      <point x="4" y="32"/>
      <point x="60" y="215" type="curve" smooth="yes"/>
      <point x="458" y="1517" type="line"/>
      <point x="327" y="1462" type="line"/>
      <point x="312" y="1496" type="line"/>
      <point x="516" y="1580" type="line"/>
      <point x="94" y="202" type="line" smooth="yes"/>
      <point x="53" y="69"/>
      <point x="193" y="22"/>
      <point x="367" y="22" type="curve" smooth="yes"/>
      <point x="675" y="22"/>
      <point x="923" y="455"/>
      <point x="923" y="747" type="curve" smooth="yes"/>
      <point x="923" y="863"/>
      <point x="868" y="979"/>
      <point x="747" y="979" type="curve" smooth="yes"/>
      <point x="618" y="979"/>
      <point x="499" y="900"/>
      <point x="404" y="827" type="curve"/>
      <point x="382" y="856" type="line"/>
      <point x="497" y="942"/>
      <point x="617" y="1017"/>
      <point x="746" y="1017" type="curve" smooth="yes"/>
      <point x="894" y="1017"/>
      <point x="959" y="877"/>
    </contour>
  </outline>
</glyph>
<glyph name="d" format="2">
  <advance width="1170"/>
  <unicode hex="0064"/>
  <outline>
    <contour>
      <point x="969" y="1490" type="line"/>
      <point x="1210" y="1571" type="line"/>
      <point x="921" y="633" type="line" smooth="yes"/>
      <point x="893" y="543"/>
      <point x="866" y="465"/>
      <point x="847" y="396" type="curve" smooth="yes"/>
      <point x="801" y="223"/>
      <point x="765" y="21"/>
      <point x="855" y="21" type="curve" smooth="yes"/>
      <point x="944" y="21"/>
      <point x="1011" y="109"/>
      <point x="1049" y="180" type="curve"/>
      <point x="1082" y="163" type="line"/>
      <point x="1015" y="44"/>
      <point x="940" y="-16"/>
      <point x="855" y="-16" type="curve" smooth="yes"/>
      <point x="701" y="-16"/>
      <point x="782" y="294"/>
      <point x="807" y="387" type="curve"/>
      <point x="778" y="337" type="line" smooth="yes"/>
      <point x="687" y="188"/>
      <point x="531" y="-15"/>
      <point x="331" y="-15" type="curve" smooth="yes"/>
      <point x="165" y="-15"/>
      <point x="60" y="118"/>
      <point x="60" y="285" type="curve" smooth="yes"/>
      <point x="60" y="571"/>
      <point x="352" y="1015"/>
      <point x="646" y="1015" type="curve" smooth="yes"/>
      <point x="741" y="1015"/>
      <point x="819" y="981"/>
      <point x="870" y="902" type="curve"/>
      <point x="839" y="882" type="line"/>
      <point x="796" y="950"/>
      <point x="733" y="979"/>
      <point x="648" y="979" type="curve" smooth="yes"/>
      <point x="378" y="979"/>
      <point x="97" y="561"/>
      <point x="97" y="283" type="curve" smooth="yes"/>
      <point x="97" y="146"/>
      <point x="179" y="22"/>
      <point x="331" y="22" type="curve" smooth="yes"/>
      <point x="608" y="22"/>
      <point x="832" y="471"/>
      <point x="886" y="645" type="curve" smooth="yes"/>
      <point x="1154" y="1513" type="line"/>
      <point x="981" y="1455" type="line"/>
    </contour>
  </outline>
</glyph>
<glyph name="g" format="2">
  <advance width="952"/>
  <unicode hex="0067"/>
  <outline>
    <contour>
      <point x="830" y="698" type="curve"/>
      <point x="867" y="698" type="line"/>
      <point x="843" y="380"/>
      <point x="720" y="-43"/>
      <point x="575" y="-325" type="curve" smooth="yes"/>
      <point x="474" y="-525"/>
      <point x="318" y="-734"/>
      <point x="65" y="-734" type="curve" smooth="yes"/>
      <point x="-91" y="-734"/>
      <point x="-224" y="-630"/>
      <point x="-224" y="-462" type="curve" smooth="yes"/>
      <point x="-224" y="-426"/>
      <point x="-218" y="-388"/>
      <point x="-204" y="-341" type="curve"/>
      <point x="-24" y="-223" type="line"/>
      <point x="-3" y="-253" type="line"/>
      <point x="-172" y="-364" type="line"/>
      <point x="-182" y="-398"/>
      <point x="-187" y="-430"/>
      <point x="-187" y="-461" type="curve" smooth="yes"/>
      <point x="-187" y="-598"/>
      <point x="-77" y="-698"/>
      <point x="65" y="-698" type="curve" smooth="yes"/>
      <point x="288" y="-698"/>
      <point x="426" y="-522"/>
      <point x="528" y="-332" type="curve" smooth="yes"/>
      <point x="628" y="-146"/>
      <point x="694" y="54"/>
      <point x="756" y="277" type="curve"/>
      <point x="677" y="148"/>
      <point x="522" y="-15"/>
      <point x="350" y="-15" type="curve" smooth="yes"/>
      <point x="167" y="-15"/>
      <point x="61" y="176"/>
      <point x="61" y="353" type="curve" smooth="yes"/>
      <point x="61" y="607"/>
      <point x="267" y="1017"/>
      <point x="573" y="1017" type="curve" smooth="yes"/>
      <point x="674" y="1017"/>
      <point x="761" y="960"/>
      <point x="813" y="866" type="curve"/>
      <point x="781" y="848" type="line"/>
      <point x="734" y="936"/>
      <point x="665" y="980"/>
      <point x="573" y="980" type="curve" smooth="yes"/>
      <point x="298" y="980"/>
      <point x="98" y="602"/>
      <point x="98" y="350" type="curve" smooth="yes"/>
      <point x="98" y="206"/>
      <point x="178" y="22"/>
      <point x="350" y="22" type="curve" smooth="yes"/>
      <point x="557" y="22"/>
      <point x="766" y="285"/>
      <point x="802" y="483" type="curve" smooth="yes"/>
      <point x="819" y="577"/>
      <point x="830" y="647"/>
    </contour>
  </outline>
</glyph>
<glyph name="i" format="2">
  <advance width="531"/>
  <unicode hex="0069"/>
  <outline>
    <contour>
      <point x="413" y="1144" type="curve" smooth="yes"/>
      <point x="371" y="1144"/>
      <point x="328" y="1172"/>
      <point x="328" y="1221" type="curve" smooth="yes"/>
      <point x="328" y="1292"/>
      <point x="394" y="1357"/>
      <point x="469" y="1357" type="curve" smooth="yes"/>
      <point x="512" y="1357"/>
      <point x="551" y="1324"/>
      <point x="551" y="1277" type="curve" smooth="yes"/>
      <point x="551" y="1210"/>
      <point x="485" y="1144"/>
    </contour>
    <contour>
      <point x="467" y="1320" type="curve" smooth="yes"/>
      <point x="420" y="1320"/>
      <point x="366" y="1276"/>
      <point x="366" y="1224" type="curve" smooth="yes"/>
      <point x="366" y="1199"/>
      <point x="385" y="1180"/>
      <point x="413" y="1180" type="curve" smooth="yes"/>
      <point x="461" y="1180"/>
      <point x="514" y="1227"/>
      <point x="514" y="1278" type="curve" smooth="yes"/>
      <point x="514" y="1303"/>
      <point x="494" y="1320"/>
    </contour>
    <contour>
      <point x="418" y="178" type="curve"/>
      <point x="442" y="151" type="line"/>
      <point x="378" y="98"/>
      <point x="242" y="-15"/>
      <point x="150" y="-15" type="curve" smooth="yes"/>
      <point x="108" y="-15"/>
      <point x="70" y="7"/>
      <point x="70" y="62" type="curve" smooth="yes"/>
      <point x="70" y="86"/>
      <point x="76" y="111"/>
      <point x="83" y="134" type="curve" smooth="yes"/>
      <point x="333" y="937" type="line" smooth="yes"/>
      <point x="340" y="960"/>
      <point x="333" y="978"/>
      <point x="305" y="978" type="curve" smooth="yes"/>
      <point x="255" y="978"/>
      <point x="203" y="935"/>
      <point x="162" y="904" type="curve"/>
      <point x="139" y="933" type="line"/>
      <point x="208" y="988"/>
      <point x="263" y="1015"/>
      <point x="305" y="1015" type="curve" smooth="yes"/>
      <point x="353" y="1015"/>
      <point x="383" y="976"/>
      <point x="368" y="927" type="curve" smooth="yes"/>
      <point x="117" y="122" type="line" smooth="yes"/>
      <point x="112" y="107"/>
      <point x="107" y="87"/>
      <point x="107" y="69" type="curve" smooth="yes"/>
      <point x="107" y="44"/>
      <point x="117" y="22"/>
      <point x="150" y="22" type="curve" smooth="yes"/>
      <point x="231" y="22"/>
      <point x="348" y="120"/>
    </contour>
  </outline>
</glyph>
<glyph name="j" format="2">
  <advance width="531"/>
  <unicode hex="006A"/>
  <outline>
    <contour>
      <point x="75" y="-514" type="curve" smooth="yes"/>
      <point x="443" y="927" type="line" smooth="yes"/>
      <point x="456" y="977"/>
      <point x="428" y="1015"/>
      <point x="380" y="1015" type="curve" smooth="yes"/>
      <point x="338" y="1015"/>
      <point x="283" y="988"/>
      <point x="214" y="933" type="curve"/>
      <point x="237" y="904" type="line"/>
      <point x="278" y="935"/>
      <point x="330" y="978"/>
      <point x="380" y="978" type="curve" smooth="yes"/>
      <point x="408" y="978"/>
      <point x="414" y="960"/>
      <point x="408" y="937" type="curve" smooth="yes"/>
      <point x="42" y="-495" type="line" smooth="yes"/>
      <point x="14" y="-605"/>
      <point x="-73" y="-697"/>
      <point x="-198" y="-697" type="curve" smooth="yes"/>
      <point x="-294" y="-697"/>
      <point x="-370" y="-650"/>
      <point x="-363" y="-542" type="curve"/>
      <point x="-400" y="-537" type="line"/>
      <point x="-416" y="-656"/>
      <point x="-315" y="-734"/>
      <point x="-198" y="-734" type="curve" smooth="yes"/>
      <point x="-69" y="-734"/>
      <point x="42" y="-642"/>
    </contour>
    <contour>
      <point x="413" y="1144" type="curve" smooth="yes"/>
      <point x="371" y="1144"/>
      <point x="328" y="1172"/>
      <point x="328" y="1221" type="curve" smooth="yes"/>
      <point x="328" y="1292"/>
      <point x="394" y="1357"/>
      <point x="469" y="1357" type="curve" smooth="yes"/>
      <point x="512" y="1357"/>
      <point x="551" y="1324"/>
      <point x="551" y="1277" type="curve" smooth="yes"/>
      <point x="551" y="1210"/>
      <point x="485" y="1144"/>
    </contour>
    <contour>
      <point x="467" y="1320" type="curve" smooth="yes"/>
      <point x="420" y="1320"/>
      <point x="366" y="1276"/>
      <point x="366" y="1224" type="curve" smooth="yes"/>
      <point x="366" y="1199"/>
      <point x="385" y="1180"/>
      <point x="413" y="1180" type="curve" smooth="yes"/>
      <point x="461" y="1180"/>
      <point x="514" y="1227"/>
      <point x="514" y="1278" type="curve" smooth="yes"/>
      <point x="514" y="1303"/>
      <point x="494" y="1320"/>
    </contour>
  </outline>
</glyph>
<glyph name="p" format="2">
  <advance width="977"/>
  <unicode hex="0070"/>
  <outline>
    <contour>
      <point x="741" y="1015" type="curve" smooth="yes"/>
      <point x="868" y="1015"/>
      <point x="917" y="925"/>
      <point x="917" y="777" type="curve" smooth="yes"/>
      <point x="917" y="503"/>
      <point x="662" y="-15"/>
      <point x="354" y="-15" type="curve" smooth="yes"/>
      <point x="286" y="-15"/>
      <point x="227" y="15"/>
      <point x="178" y="75" type="curve"/>
      <point x="209" y="101" type="line"/>
      <point x="252" y="49"/>
      <point x="300" y="23"/>
      <point x="355" y="23" type="curve" smooth="yes"/>
      <point x="631" y="23"/>
      <point x="877" y="517"/>
      <point x="877" y="774" type="curve" smooth="yes"/>
      <point x="877" y="895"/>
      <point x="851" y="976"/>
      <point x="741" y="976" type="curve" smooth="yes"/>
      <point x="622" y="976"/>
      <point x="493" y="938"/>
      <point x="354" y="863" type="curve"/>
      <point x="-85" y="-588" type="line" smooth="yes"/>
      <point x="-99" y="-635"/>
      <point x="-129" y="-672"/>
      <point x="-175" y="-697" type="curve"/>
      <point x="48" y="-697" type="line"/>
      <point x="48" y="-734" type="line"/>
      <point x="-335" y="-734" type="line"/>
      <point x="-335" y="-697" type="line"/>
      <point x="-246" y="-694"/>
      <point x="-147" y="-667"/>
      <point x="-120" y="-578" type="curve" smooth="yes"/>
      <point x="308" y="836" type="line"/>
      <point x="237" y="795"/>
      <point x="172" y="746"/>
      <point x="107" y="692" type="curve"/>
      <point x="81" y="721" type="line"/>
      <point x="147" y="782"/>
      <point x="238" y="840"/>
      <point x="325" y="891" type="curve"/>
      <point x="379" y="1064" type="line"/>
      <point x="415" y="1053" type="line"/>
      <point x="370" y="916" type="line"/>
      <point x="503" y="982"/>
      <point x="627" y="1015"/>
    </contour>
  </outline>
</glyph>
<glyph name="q" format="2">
  <advance width="1045"/>
  <unicode hex="0071"/>
  <outline>
    <contour>
      <point x="977" y="1054" type="line"/>
      <point x="1012" y="1043" type="line"/>
      <point x="516" y="-589" type="line" smooth="yes"/>
      <point x="507" y="-617"/>
      <point x="494" y="-641"/>
      <point x="473" y="-662" type="curve"/>
      <point x="719" y="-620" type="line"/>
      <point x="726" y="-655" type="line"/>
      <point x="266" y="-735" type="line"/>
      <point x="263" y="-699" type="line"/>
      <point x="433" y="-676"/>
      <point x="465" y="-633"/>
      <point x="481" y="-579" type="curve" smooth="yes"/>
      <point x="821" y="537" type="line" smooth="yes"/>
      <point x="858" y="658"/>
      <point x="868" y="975"/>
      <point x="667" y="975" type="curve" smooth="yes"/>
      <point x="368" y="975"/>
      <point x="100" y="484"/>
      <point x="100" y="218" type="curve" smooth="yes"/>
      <point x="100" y="124"/>
      <point x="136" y="23"/>
      <point x="239" y="23" type="curve" smooth="yes"/>
      <point x="385" y="23"/>
      <point x="529" y="189"/>
      <point x="615" y="303" type="curve"/>
      <point x="647" y="280" type="line"/>
      <point x="559" y="162"/>
      <point x="403" y="-16"/>
      <point x="237" y="-16" type="curve" smooth="yes"/>
      <point x="117" y="-16"/>
      <point x="60" y="94"/>
      <point x="60" y="220" type="curve" smooth="yes"/>
      <point x="60" y="493"/>
      <point x="339" y="1015"/>
      <point x="668" y="1015" type="curve" smooth="yes"/>
      <point x="808" y="1015"/>
      <point x="884" y="873"/>
      <point x="880" y="734" type="curve"/>
    </contour>
  </outline>
</glyph>
<glyph name="r" format="2">
  <advance width="874"/>
  <unicode hex="0072"/>
  <outline>
    <contour>
      <point x="714" y="1015" type="curve" smooth="yes"/>
      <point x="856" y="1015"/>
      <point x="904" y="908"/>
      <point x="875" y="774" type="curve"/>
      <point x="839" y="784" type="line"/>
      <point x="864" y="879"/>
      <point x="832" y="979"/>
      <point x="714" y="979" type="curve" smooth="yes"/>
      <point x="600" y="979"/>
      <point x="462" y="803"/>
      <point x="299" y="477" type="curve" smooth="yes"/>
      <point x="224" y="325"/>
      <point x="152" y="167"/>
      <point x="95" y="-6" type="curve"/>
      <point x="60" y="5" type="line"/>
      <point x="348" y="890" type="line" smooth="yes"/>
      <point x="363" y="937"/>
      <point x="363" y="977"/>
      <point x="302" y="977" type="curve" smooth="yes"/>
      <point x="220" y="977"/>
      <point x="160" y="902"/>
      <point x="130" y="829" type="curve"/>
      <point x="95" y="842" type="line"/>
      <point x="128" y="932"/>
      <point x="206" y="1015"/>
      <point x="312" y="1015" type="curve" smooth="yes"/>
      <point x="395" y="1015"/>
      <point x="405" y="945"/>
      <point x="384" y="878" type="curve" smooth="yes"/>
      <point x="322" y="679"/>
      <point x="279" y="543"/>
      <point x="255" y="471" type="curve"/>
      <point x="416" y="811"/>
      <point x="583" y="1015"/>
    </contour>
  </outline>
</glyph>
<glyph name="s" format="2">
  <advance width="724"/>
  <unicode hex="0073"/>
  <outline>
    <contour>
      <point x="529" y="1016" type="curve" smooth="yes"/>
      <point x="615" y="1016"/>
      <point x="720" y="980"/>
      <point x="724" y="877" type="curve"/>
      <point x="687" y="879" type="line"/>
      <point x="684" y="966"/>
      <point x="579" y="981"/>
      <point x="524" y="981" type="curve" smooth="yes"/>
      <point x="399" y="981"/>
      <point x="276" y="917"/>
      <point x="276" y="781" type="curve" smooth="yes"/>
      <point x="276" y="629"/>
      <point x="522" y="538"/>
      <point x="522" y="310" type="curve" smooth="yes"/>
      <point x="522" y="136"/>
      <point x="417" y="-15"/>
      <point x="224" y="-15" type="curve" smooth="yes"/>
      <point x="128" y="-15"/>
      <point x="18" y="27"/>
      <point x="10" y="135" type="curve"/>
      <point x="47" y="135" type="line"/>
      <point x="52" y="53"/>
      <point x="146" y="22"/>
      <point x="225" y="22" type="curve" smooth="yes"/>
      <point x="391" y="22"/>
      <point x="485" y="155"/>
      <point x="485" y="310" type="curve" smooth="yes"/>
      <point x="485" y="530"/>
      <point x="238" y="598"/>
      <point x="238" y="788" type="curve" smooth="yes"/>
      <point x="238" y="940"/>
      <point x="395" y="1016"/>
    </contour>
  </outline>
</glyph>
<glyph name="x" format="2">
  <advance width="1204"/>
  <unicode hex="0078"/>
  <outline>
    <contour>
      <point x="1109" y="262" type="line"/>
      <point x="1085" y="108"/>
      <point x="988" y="-15"/>
      <point x="911" y="-15" type="curve" smooth="yes"/>
      <point x="862" y="-15"/>
      <point x="826" y="24"/>
      <point x="795" y="99" type="curve" smooth="yes"/>
      <point x="636" y="489" type="line"/>
      <point x="250" y="97" type="line" smooth="yes"/>
      <point x="167" y="12"/>
      <point x="113" y="-15"/>
      <point x="86" y="-15" type="curve" smooth="yes"/>
      <point x="45" y="-15"/>
      <point x="30" y="17"/>
      <point x="30" y="49" type="curve" smooth="yes"/>
      <point x="30" y="105"/>
      <point x="79" y="189"/>
      <point x="123" y="260" type="curve"/>
      <point x="155" y="240" type="line"/>
      <point x="84" y="120"/>
      <point x="66" y="72"/>
      <point x="66" y="52" type="curve" smooth="yes"/>
      <point x="66" y="31"/>
      <point x="74" y="22"/>
      <point x="86" y="22" type="curve" smooth="yes"/>
      <point x="107" y="22"/>
      <point x="139" y="37"/>
      <point x="217" y="117" type="curve" smooth="yes"/>
      <point x="620" y="527" type="line"/>
      <point x="477" y="905" type="line" smooth="yes"/>
      <point x="461" y="946"/>
      <point x="445" y="977"/>
      <point x="413" y="977" type="curve" smooth="yes"/>
      <point x="315" y="977"/>
      <point x="250" y="850"/>
      <point x="220" y="767" type="curve"/>
      <point x="219" y="766" type="line"/>
      <point x="184" y="777" type="line"/>
      <point x="210" y="867"/>
      <point x="299" y="1015"/>
      <point x="413" y="1015" type="curve" smooth="yes"/>
      <point x="460" y="1015"/>
      <point x="488" y="975"/>
      <point x="503" y="935" type="curve" smooth="yes"/>
      <point x="648" y="556" type="line"/>
      <point x="1011" y="951" type="line" smooth="yes"/>
      <point x="1054" y="998"/>
      <point x="1080" y="1011"/>
      <point x="1112" y="1011" type="curve" smooth="yes"/>
      <point x="1145" y="1011"/>
      <point x="1159" y="991"/>
      <point x="1159" y="960" type="curve" smooth="yes"/>
      <point x="1159" y="925"/>
      <point x="1146" y="862"/>
      <point x="1124" y="797" type="curve"/>
      <point x="1089" y="810" type="line"/>
      <point x="1113" y="882"/>
      <point x="1122" y="934"/>
      <point x="1122" y="955" type="curve" smooth="yes"/>
      <point x="1122" y="960"/>
      <point x="1121" y="973"/>
      <point x="1106" y="973" type="curve" smooth="yes"/>
      <point x="1091" y="973"/>
      <point x="1075" y="967"/>
      <point x="1040" y="928" type="curve" smooth="yes"/>
      <point x="664" y="518" type="line"/>
      <point x="829" y="115" type="line" smooth="yes"/>
      <point x="855" y="51"/>
      <point x="882" y="22"/>
      <point x="911" y="22" type="curve" smooth="yes"/>
      <point x="973" y="22"/>
      <point x="1053" y="129"/>
      <point x="1072" y="262" type="curve"/>
    </contour>
  </outline>
</glyph>
<glyph name="y" format="2">
  <advance width="1028"/>
  <unicode hex="0079"/>
  <outline>
    <contour>
      <point x="532" y="-13" type="curve"/>
      <point x="706" y="305"/>
      <point x="873" y="644"/>
      <point x="989" y="1000" type="curve"/>
      <point x="1024" y="988" type="line"/>
      <point x="928" y="704"/>
      <point x="811" y="423"/>
      <point x="655" y="130" type="curve" smooth="yes"/>
      <point x="454" y="-247"/>
      <point x="131" y="-734"/>
      <point x="-265" y="-734" type="curve" smooth="yes"/>
      <point x="-358" y="-734"/>
      <point x="-420" y="-717"/>
      <point x="-420" y="-648" type="curve" smooth="yes"/>
      <point x="-420" y="-634"/>
      <point x="-417" y="-619"/>
      <point x="-409" y="-601" type="curve"/>
      <point x="-378" y="-620" type="line"/>
      <point x="-380" y="-623" type="line" smooth="yes"/>
      <point x="-381" y="-628"/>
      <point x="-386" y="-638"/>
      <point x="-386" y="-649" type="curve" smooth="yes"/>
      <point x="-386" y="-695"/>
      <point x="-301" y="-697"/>
      <point x="-265" y="-697" type="curve" smooth="yes"/>
      <point x="64" y="-697"/>
      <point x="325" y="-338"/>
      <point x="490" y="-81" type="curve"/>
      <point x="533" y="764"/>
      <point x="502" y="978"/>
      <point x="367" y="978" type="curve" smooth="yes"/>
      <point x="230" y="978"/>
      <point x="124" y="846"/>
      <point x="99" y="717" type="curve"/>
      <point x="63" y="723" type="line"/>
      <point x="64" y="728" type="line" smooth="yes"/>
      <point x="88" y="865"/>
      <point x="211" y="1015"/>
      <point x="367" y="1015" type="curve" smooth="yes"/>
      <point x="548" y="1015"/>
      <point x="567" y="758"/>
    </contour>
  </outline>
</glyph>
<glyph name="z" format="2">
  <advance width="1176"/>
  <unicode hex="007A"/>
  <outline>
    <contour>
      <point x="1098" y="1041" type="line"/>
      <point x="1126" y="1017" type="line"/>
      <point x="206" y="138" type="line"/>
      <point x="226" y="147"/>
      <point x="257" y="155"/>
      <point x="280" y="155" type="curve" smooth="yes"/>
      <point x="421" y="155"/>
      <point x="641" y="22"/>
      <point x="759" y="22" type="curve" smooth="yes"/>
      <point x="874" y="22"/>
      <point x="1015" y="94"/>
      <point x="1015" y="228" type="curve" smooth="yes"/>
      <point x="1015" y="288"/>
      <point x="991" y="332"/>
      <point x="946" y="377" type="curve"/>
      <point x="972" y="402" type="line"/>
      <point x="1017" y="357"/>
      <point x="1051" y="297"/>
      <point x="1051" y="229" type="curve" smooth="yes"/>
      <point x="1051" y="79"/>
      <point x="901" y="-15"/>
      <point x="759" y="-15" type="curve" smooth="yes"/>
      <point x="611" y="-15"/>
      <point x="451" y="118"/>
      <point x="280" y="118" type="curve" smooth="yes"/>
      <point x="235" y="118"/>
      <point x="190" y="104"/>
      <point x="145" y="77" type="curve"/>
      <point x="23" y="-39" type="line"/>
      <point x="-5" y="-16" type="line"/>
      <point x="977" y="925" type="line"/>
      <point x="943" y="914"/>
      <point x="904" y="902"/>
      <point x="861" y="902" type="curve" smooth="yes"/>
      <point x="717" y="902"/>
      <point x="585" y="986"/>
      <point x="435" y="986" type="curve" smooth="yes"/>
      <point x="330" y="986"/>
      <point x="218" y="912"/>
      <point x="218" y="809" type="curve" smooth="yes"/>
      <point x="218" y="731"/>
      <point x="279" y="721"/>
      <point x="344" y="740" type="curve"/>
      <point x="356" y="705" type="line"/>
      <point x="275" y="677"/>
      <point x="182" y="705"/>
      <point x="182" y="809" type="curve" smooth="yes"/>
      <point x="182" y="914"/>
      <point x="289" y="1024"/>
      <point x="444" y="1024" type="curve" smooth="yes"/>
      <point x="586" y="1024"/>
      <point x="714" y="938"/>
      <point x="858" y="938" type="curve" smooth="yes"/>
      <point x="921" y="938"/>
      <point x="1019" y="963"/>
      <point x="1069" y="1012" type="curve" smooth="yes"/>
    </contour>
  </outline>
</glyph>
<glyph name="bar" format="2">
  <advance width="427"/>
  <unicode hex="007C"/>
  <outline>
    <contour>
      <point x="316" y="-108" type="line"/>
      <point x="279" y="-108" type="line"/>
      <point x="279" y="1779" type="line"/>
      <point x="316" y="1779" type="line"/>
    </contour>
  </outline>
</glyph>
<glyph name="Ccedilla" format="2">
  <advance width="1126"/>
  <unicode hex="00C7"/>
  <outline>
    <contour>
      <point x="228" y="-552" type="line"/>
      <point x="413" y="-393" type="line"/>
      <point x="413" y="-136" type="line"/>
      <point x="451" y="-136" type="line"/>
      <point x="451" y="-411" type="line"/>
      <point x="253" y="-581" type="line"/>
    </contour>
    <contour>
      <point x="1088" y="1268" type="line"/>
      <point x="1065" y="1298" type="line"/>
      <point x="1274" y="1458" type="line"/>
      <point x="1207" y="1547"/>
      <point x="1117" y="1592"/>
      <point x="1004" y="1592" type="curve" smooth="yes"/>
      <point x="519" y="1592"/>
      <point x="152" y="920"/>
      <point x="152" y="495" type="curve" smooth="yes"/>
      <point x="152" y="269"/>
      <point x="263" y="23"/>
      <point x="522" y="23" type="curve" smooth="yes"/>
      <point x="750" y="23"/>
      <point x="977" y="193"/>
      <point x="1097" y="389" type="curve" smooth="yes"/>
      <point x="1129" y="441"/>
      <point x="1141" y="480"/>
      <point x="1132" y="506" type="curve" smooth="yes"/>
      <point x="1126" y="521"/>
      <point x="1112" y="530"/>
      <point x="1090" y="535" type="curve"/>
      <point x="1097" y="573" type="line"/>
      <point x="1134" y="566"/>
      <point x="1157" y="547"/>
      <point x="1168" y="517" type="curve" smooth="yes"/>
      <point x="1182" y="473"/>
      <point x="1160" y="409"/>
      <point x="1102" y="326" type="curve" smooth="yes"/>
      <point x="980" y="151"/>
      <point x="755" y="-15"/>
      <point x="522" y="-15" type="curve" smooth="yes"/>
      <point x="253" y="-15"/>
      <point x="114" y="227"/>
      <point x="114" y="499" type="curve" smooth="yes"/>
      <point x="114" y="952"/>
      <point x="510" y="1630"/>
      <point x="1004" y="1630" type="curve" smooth="yes"/>
      <point x="1127" y="1630"/>
      <point x="1245" y="1573"/>
      <point x="1326" y="1450" type="curve"/>
    </contour>
  </outline>
</glyph>
<glyph name="Igrave" format="2">
  <advance width="574"/>
  <unicode hex="00CC"/>
  <outline>
    <contour>
      <point x="-51" y="1982" type="line"/>
      <point x="-39" y="2018" type="line"/>
      <point x="599" y="1817" type="line"/>
      <point x="588" y="1781" type="line"/>
    </contour>
    <contour>
      <point x="620" y="1574" type="line"/>
      <point x="769" y="1574" type="line"/>
      <point x="769" y="1612" type="line"/>
      <point x="443" y="1612" type="line"/>
      <point x="443" y="1574" type="line"/>
      <point x="580" y="1574" type="line"/>
      <point x="109" y="38" type="line"/>
      <point x="-40" y="38" type="line"/>
      <point x="-40" y="0" type="line"/>
      <point x="287" y="0" type="line"/>
      <point x="287" y="38" type="line"/>
      <point x="149" y="38" type="line"/>
    </contour>
  </outline>
</glyph>
<glyph name="Ocircumflex" format="2">
  <advance width="1352"/>
  <unicode hex="00D4"/>
  <outline>
    <contour>
      <point x="748" y="1822" type="line"/>
      <point x="1006" y="2009" type="line"/>
      <point x="1288" y="1822" type="line"/>
      <point x="1267" y="1791" type="line"/>
      <point x="1007" y="1963" type="line"/>
      <point x="770" y="1792" type="line"/>
    </contour>
    <contour>
      <point x="100" y="514" type="curve" smooth="yes"/>
      <point x="100" y="964"/>
      <point x="471" y="1629"/>
      <point x="1003" y="1629" type="curve" smooth="yes"/>
      <point x="1305" y="1629"/>
      <point x="1412" y="1386"/>
      <point x="1412" y="1123" type="curve" smooth="yes"/>
      <point x="1412" y="684"/>
      <point x="1016" y="-14"/>
      <point x="503" y="-14" type="curve" smooth="yes"/>
      <point x="229" y="-14"/>
      <point x="100" y="254"/>
    </contour>
    <contour>
      <point x="514" y="24" type="curve" smooth="yes"/>
      <point x="990" y="24"/>
      <point x="1381" y="701"/>
      <point x="1373" y="1124" type="curve" smooth="yes"/>
      <point x="1369" y="1378"/>
      <point x="1265" y="1590"/>
      <point x="992" y="1590" type="curve" smooth="yes"/>
      <point x="506" y="1590"/>
      <point x="140" y="963"/>
      <point x="140" y="511" type="curve" smooth="yes"/>
      <point x="140" y="296"/>
      <point x="239" y="24"/>
    </contour>
  </outline>
</glyph>
<glyph name="Udieresis" format="2">
  <advance width="1469"/>
  <unicode hex="00DC"/>
  <outline>
    <contour>
      <point x="843" y="1788" type="line"/>
      <point x="843" y="1950" type="line"/>
      <point x="881" y="1950" type="line"/>
      <point x="881" y="1788" type="line"/>
    </contour>
    <contour>
      <point x="1079" y="1788" type="line"/>
      <point x="1079" y="1950" type="line"/>
      <point x="1117" y="1950" type="line"/>
      <point x="1117" y="1788" type="line"/>
    </contour>
    <contour>
      <point x="1362" y="1575" type="line"/>
      <point x="1496" y="1575" type="line"/>
      <point x="1156" y="466" type="line" smooth="yes"/>
      <point x="1066" y="173"/>
      <point x="832" y="38"/>
      <point x="574" y="38" type="curve" smooth="yes"/>
      <point x="313" y="38"/>
      <point x="173" y="183"/>
      <point x="252" y="442" type="curve" smooth="yes"/>
      <point x="600" y="1575" type="line"/>
      <point x="744" y="1575" type="line"/>
      <point x="744" y="1612" type="line"/>
      <point x="418" y="1612" type="line"/>
      <point x="418" y="1575" type="line"/>
      <point x="560" y="1575" type="line"/>
      <point x="216" y="454" type="line" smooth="yes"/>
      <point x="130" y="175"/>
      <point x="270" y="0"/>
      <point x="574" y="0" type="curve" smooth="yes"/>
      <point x="792" y="0"/>
      <point x="1085" y="102"/>
      <point x="1193" y="456" type="curve" smooth="yes"/>
      <point x="1536" y="1575" type="line"/>
      <point x="1689" y="1575" type="line"/>
      <point x="1689" y="1612" type="line"/>
      <point x="1362" y="1612" type="line"/>
    </contour>
  </outline>
</glyph>
<glyph name="adieresis" format="2">
  <advance width="1002"/>
  <unicode hex="00E4"/>
  <outline>
    <contour>
      <point x="504" y="1088" type="line"/>
      <point x="504" y="1250" type="line"/>
      <point x="542" y="1250" type="line"/>
      <point x="542" y="1088" type="line"/>
    </contour>
    <contour>
      <point x="740" y="1088" type="line"/>
      <point x="740" y="1250" type="line"/>
      <point x="778" y="1250" type="line"/>
      <point x="778" y="1088" type="line"/>
    </contour>
    <contour>
      <point x="758" y="22" type="curve" smooth="yes"/>
      <point x="810" y="24"/>
      <point x="871" y="89"/>
      <point x="938" y="175" type="curve"/>
      <point x="967" y="152" type="line"/>
      <point x="894" y="58"/>
      <point x="824" y="-16"/>
      <point x="755" y="-16" type="curve" smooth="yes"/>
      <point x="689" y="-16"/>
      <point x="687" y="56"/>
      <point x="687" y="116" type="curve" smooth="yes"/>
      <point x="687" y="250"/>
      <point x="718" y="397"/>
      <point x="750" y="558" type="curve"/>
      <point x="559" y="185"/>
      <point x="386" y="-15"/>
      <point x="232" y="-15" type="curve" smooth="yes"/>
      <point x="85" y="-15"/>
      <point x="60" y="89"/>
      <point x="60" y="225" type="curve" smooth="yes"/>
      <point x="60" y="521"/>
      <point x="269" y="1015"/>
      <point x="635" y="1015" type="curve" smooth="yes"/>
      <point x="722" y="1015"/>
      <point x="791" y="982"/>
      <point x="840" y="917" type="curve"/>
      <point x="806" y="899" type="line"/>
      <point x="793" y="916"/>
      <point x="741" y="978"/>
      <point x="635" y="978" type="curve" smooth="yes"/>
      <point x="296" y="978"/>
      <point x="96" y="506"/>
      <point x="96" y="225" type="curve" smooth="yes"/>
      <point x="96" y="121"/>
      <point x="104" y="22"/>
      <point x="232" y="22" type="curve" smooth="yes"/>
      <point x="440" y="22"/>
      <point x="649" y="440"/>
      <point x="786" y="711" type="curve"/>
      <point x="820" y="698" type="line"/>
      <point x="755" y="449"/>
      <point x="722" y="231"/>
      <point x="722" y="111" type="curve" smooth="yes"/>
      <point x="722" y="72"/>
      <point x="724" y="20"/>
    </contour>
  </outline>
</glyph>
<glyph name="ae" format="2">
  <advance width="1560"/>
  <unicode hex="00E6"/>
  <outline>
    <contour>
      <point x="1414" y="206" type="curve"/>
      <point x="1440" y="180" type="line"/>
      <point x="1330" y="70"/>
      <point x="1183" y="-15"/>
      <point x="1018" y="-15" type="curve" smooth="yes"/>
      <point x="831" y="-15"/>
      <point x="673" y="138"/>
      <point x="673" y="346" type="curve" smooth="yes"/>
      <point x="673" y="373"/>
      <point x="675" y="400"/>
      <point x="679" y="427" type="curve"/>
      <point x="516" y="138"/>
      <point x="367" y="-15"/>
      <point x="232" y="-15" type="curve" smooth="yes"/>
      <point x="85" y="-15"/>
      <point x="60" y="89"/>
      <point x="60" y="225" type="curve" smooth="yes"/>
      <point x="60" y="521"/>
      <point x="269" y="1015"/>
      <point x="635" y="1015" type="curve" smooth="yes"/>
      <point x="722" y="1015"/>
      <point x="791" y="982"/>
      <point x="840" y="917" type="curve"/>
      <point x="806" y="899" type="line"/>
      <point x="793" y="916"/>
      <point x="741" y="978"/>
      <point x="635" y="978" type="curve" smooth="yes"/>
      <point x="296" y="978"/>
      <point x="96" y="506"/>
      <point x="96" y="225" type="curve" smooth="yes"/>
      <point x="96" y="121"/>
      <point x="104" y="22"/>
      <point x="232" y="22" type="curve" smooth="yes"/>
      <point x="416" y="22"/>
      <point x="605" y="349"/>
      <point x="737" y="614" type="curve" smooth="yes"/>
      <point x="848" y="838"/>
      <point x="1077" y="1015"/>
      <point x="1324" y="1015" type="curve" smooth="yes"/>
      <point x="1426" y="1015"/>
      <point x="1576" y="960"/>
      <point x="1576" y="823" type="curve" smooth="yes"/>
      <point x="1576" y="614"/>
      <point x="1251" y="555"/>
      <point x="875" y="506" type="curve"/>
      <point x="871" y="543" type="line"/>
      <point x="1229" y="595"/>
      <point x="1539" y="636"/>
      <point x="1539" y="823" type="curve" smooth="yes"/>
      <point x="1539" y="930"/>
      <point x="1417" y="978"/>
      <point x="1319" y="978" type="curve" smooth="yes"/>
      <point x="1017" y="978"/>
      <point x="709" y="670"/>
      <point x="709" y="347" type="curve" smooth="yes"/>
      <point x="709" y="183"/>
      <point x="831" y="21"/>
      <point x="1015" y="21" type="curve" smooth="yes"/>
      <point x="1165" y="21"/>
      <point x="1302" y="95"/>
    </contour>
  </outline>
</glyph>
<glyph name="ccedilla" format="2">
  <advance width="864"/>
  <unicode hex="00E7"/>
  <outline>
    <contour>
      <point x="88" y="-552" type="line"/>
      <point x="273" y="-393" type="line"/>
      <point x="273" y="-136" type="line"/>
      <point x="311" y="-136" type="line"/>
      <point x="311" y="-411" type="line"/>
      <point x="113" y="-581" type="line"/>
    </contour>
    <contour>
      <point x="644" y="1015" type="curve" smooth="yes"/>
      <point x="749" y="1015"/>
      <point x="818" y="981"/>
      <point x="864" y="890" type="curve"/>
      <point x="713" y="719" type="line"/>
      <point x="685" y="743" type="line"/>
      <point x="821" y="895" type="line"/>
      <point x="786" y="951"/>
      <point x="731" y="978"/>
      <point x="644" y="978" type="curve" smooth="yes"/>
      <point x="332" y="978"/>
      <point x="97" y="582"/>
      <point x="97" y="285" type="curve" smooth="yes"/>
      <point x="97" y="153"/>
      <point x="140" y="21"/>
      <point x="293" y="21" type="curve" smooth="yes"/>
      <point x="433" y="21"/>
      <point x="542" y="99"/>
      <point x="652" y="206" type="curve"/>
      <point x="678" y="180" type="line"/>
      <point x="573" y="77"/>
      <point x="452" y="-15"/>
      <point x="294" y="-15" type="curve" smooth="yes"/>
      <point x="116" y="-15"/>
      <point x="60" y="132"/>
      <point x="60" y="288" type="curve" smooth="yes"/>
      <point x="60" y="590"/>
      <point x="297" y="1015"/>
    </contour>
  </outline>
</glyph>
<glyph name="iacute" format="2">
  <advance width="531"/>
  <unicode hex="00ED"/>
  <outline>
    <contour>
      <point x="101" y="1123" type="line"/>
      <point x="429" y="1324" type="line"/>
      <point x="440" y="1288" type="line"/>
      <point x="112" y="1087" type="line"/>
    </contour>
    <contour>
      <point x="430" y="178" type="curve"/>
      <point x="454" y="151" type="line"/>
      <point x="390" y="98"/>
      <point x="254" y="-15"/>
      <point x="162" y="-15" type="curve" smooth="yes"/>
      <point x="120" y="-15"/>
      <point x="82" y="7"/>
      <point x="82" y="62" type="curve" smooth="yes"/>
      <point x="82" y="86"/>
      <point x="88" y="111"/>
      <point x="95" y="134" type="curve" smooth="yes"/>
      <point x="345" y="937" type="line" smooth="yes"/>
      <point x="352" y="960"/>
      <point x="345" y="978"/>
      <point x="317" y="978" type="curve" smooth="yes"/>
      <point x="267" y="978"/>
      <point x="215" y="935"/>
      <point x="174" y="904" type="curve"/>
      <point x="151" y="933" type="line"/>
      <point x="220" y="988"/>
      <point x="275" y="1015"/>
      <point x="317" y="1015" type="curve" smooth="yes"/>
      <point x="365" y="1015"/>
      <point x="395" y="976"/>
      <point x="380" y="927" type="curve" smooth="yes"/>
      <point x="129" y="122" type="line" smooth="yes"/>
      <point x="124" y="107"/>
      <point x="119" y="87"/>
      <point x="119" y="69" type="curve" smooth="yes"/>
      <point x="119" y="44"/>
      <point x="129" y="22"/>
      <point x="162" y="22" type="curve" smooth="yes"/>
      <point x="243" y="22"/>
      <point x="360" y="120"/>
    </contour>
  </outline>
</glyph>
<glyph name="ograve" format="2">
  <advance width="984"/>
  <unicode hex="00F2"/>
  <outline>
    <contour>
      <point x="172" y="1289" type="line"/>
      <point x="184" y="1325" type="line"/>
      <point x="822" y="1124" type="line"/>
      <point x="811" y="1087" type="line"/>
    </contour>
    <contour>
      <point x="624" y="1015" type="curve" smooth="yes"/>
      <point x="813" y="1015"/>
      <point x="924" y="856"/>
      <point x="924" y="640" type="curve" smooth="yes"/>
      <point x="924" y="341"/>
      <point x="674" y="-15"/>
      <point x="360" y="-15" type="curve" smooth="yes"/>
      <point x="170" y="-15"/>
      <point x="60" y="136"/>
      <point x="60" y="342" type="curve" smooth="yes"/>
      <point x="60" y="660"/>
      <point x="314" y="1015"/>
    </contour>
    <contour>
      <point x="360" y="21" type="curve" smooth="yes"/>
      <point x="634" y="21"/>
      <point x="887" y="339"/>
      <point x="887" y="640" type="curve" smooth="yes"/>
      <point x="887" y="818"/>
      <point x="802" y="978"/>
      <point x="624" y="978" type="curve" smooth="yes"/>
      <point x="343" y="978"/>
      <point x="96" y="643"/>
      <point x="96" y="338" type="curve" smooth="yes"/>
      <point x="96" y="172"/>
      <point x="186" y="21"/>
    </contour>
  </outline>
</glyph>
<glyph name="ocircumflex" format="2">
  <advance width="984"/>
  <unicode hex="00F4"/>
  <outline>
    <contour>
      <point x="394" y="1129" type="line"/>
      <point x="651" y="1316" type="line"/>
      <point x="934" y="1129" type="line"/>
      <point x="913" y="1097" type="line"/>
      <point x="653" y="1270" type="line"/>
      <point x="416" y="1098" type="line"/>
    </contour>
    <contour>
      <point x="624" y="1015" type="curve" smooth="yes"/>
      <point x="813" y="1015"/>
      <point x="924" y="856"/>
      <point x="924" y="640" type="curve" smooth="yes"/>
      <point x="924" y="341"/>
      <point x="674" y="-15"/>
      <point x="360" y="-15" type="curve" smooth="yes"/>
      <point x="170" y="-15"/>
      <point x="60" y="136"/>
      <point x="60" y="342" type="curve" smooth="yes"/>
      <point x="60" y="660"/>
      <point x="314" y="1015"/>
    </contour>
    <contour>
      <point x="360" y="21" type="curve" smooth="yes"/>
      <point x="634" y="21"/>
      <point x="887" y="339"/>
      <point x="887" y="640" type="curve" smooth="yes"/>
      <point x="887" y="818"/>
      <point x="802" y="978"/>
      <point x="624" y="978" type="curve" smooth="yes"/>
      <point x="343" y="978"/>
      <point x="96" y="643"/>
      <point x="96" y="338" type="curve" smooth="yes"/>
      <point x="96" y="172"/>
      <point x="186" y="21"/>
    </contour>
  </outline>
</glyph>
<glyph name="odieresis" format="2">
  <advance width="984"/>
  <unicode hex="00F6"/>
  <outline>
    <contour>
      <point x="506" y="1085" type="line"/>
      <point x="508" y="1247" type="line"/>
      <point x="545" y="1247" type="line"/>
      <point x="544" y="1085" type="line"/>
    </contour>
    <contour>
      <point x="743" y="1085" type="line"/>
      <point x="744" y="1247" type="line"/>
      <point x="782" y="1247" type="line"/>
      <point x="780" y="1085" type="line"/>
    </contour>
    <contour>
      <point x="624" y="1015" type="curve" smooth="yes"/>
      <point x="813" y="1015"/>
      <point x="924" y="856"/>
      <point x="924" y="640" type="curve" smooth="yes"/>
      <point x="924" y="341"/>
      <point x="674" y="-15"/>
      <point x="360" y="-15" type="curve" smooth="yes"/>
      <point x="170" y="-15"/>
      <point x="60" y="136"/>
      <point x="60" y="342" type="curve" smooth="yes"/>
      <point x="60" y="660"/>
      <point x="314" y="1015"/>
    </contour>
    <contour>
      <point x="360" y="21" type="curve" smooth="yes"/>
      <point x="634" y="21"/>
      <point x="887" y="339"/>
      <point x="887" y="640" type="curve" smooth="yes"/>
      <point x="887" y="818"/>
      <point x="802" y="978"/>
      <point x="624" y="978" type="curve" smooth="yes"/>
      <point x="343" y="978"/>
      <point x="96" y="643"/>
      <point x="96" y="338" type="curve" smooth="yes"/>
      <point x="96" y="172"/>
      <point x="186" y="21"/>
    </contour>
  </outline>
</glyph>
<glyph name="dotlessi" format="2">
  <advance width="422"/>
  <unicode hex="0131"/>
  <outline>
    <contour>
      <point x="418" y="178" type="curve"/>
      <point x="442" y="151" type="line"/>
      <point x="378" y="98"/>
      <point x="242" y="-15"/>
      <point x="150" y="-15" type="curve" smooth="yes"/>
      <point x="108" y="-15"/>
      <point x="70" y="7"/>
      <point x="70" y="62" type="curve" smooth="yes"/>
      <point x="70" y="86"/>
      <point x="76" y="111"/>
      <point x="83" y="134" type="curve" smooth="yes"/>
      <point x="333" y="937" type="line" smooth="yes"/>
      <point x="340" y="960"/>
      <point x="333" y="978"/>
      <point x="305" y="978" type="curve" smooth="yes"/>
      <point x="255" y="978"/>
      <point x="203" y="935"/>
      <point x="162" y="904" type="curve"/>
      <point x="139" y="933" type="line"/>
      <point x="208" y="988"/>
      <point x="263" y="1015"/>
      <point x="305" y="1015" type="curve" smooth="yes"/>
      <point x="353" y="1015"/>
      <point x="383" y="976"/>
      <point x="368" y="927" type="curve" smooth="yes"/>
      <point x="117" y="122" type="line" smooth="yes"/>
      <point x="112" y="107"/>
      <point x="107" y="87"/>
      <point x="107" y="69" type="curve" smooth="yes"/>
      <point x="107" y="44"/>
      <point x="117" y="22"/>
      <point x="150" y="22" type="curve" smooth="yes"/>
      <point x="231" y="22"/>
      <point x="348" y="120"/>
    </contour>
  </outline>
</glyph>
<glyph name="quoteleft" format="2">
  <advance width="989"/>
  <unicode hex="2018"/>
  <outline>
    <contour>
      <point x="171" y="2018" type="line"/>
      <point x="182" y="2055" type="line"/>
      <point x="832" y="1851" type="line"/>
      <point x="821" y="1814" type="line"/>
    </contour>
  </outline>
</glyph>
<glyph name="s_t" format="2">
  <advance width="1554"/>
  <unicode hex="FB06"/>
  <outline>
    <contour>
      <point x="676" y="1402" type="curve" smooth="yes"/>
      <point x="727" y="1402"/>
      <point x="779" y="1409"/>
      <point x="836" y="1421" type="curve"/>
      <point x="832" y="1505"/>
      <point x="807" y="1592"/>
      <point x="703" y="1592" type="curve" smooth="yes"/>
      <point x="645" y="1592"/>
      <point x="512" y="1565"/>
      <point x="512" y="1484" type="curve" smooth="yes"/>
      <point x="512" y="1416"/>
      <point x="623" y="1402"/>
    </contour>
    <contour>
      <point x="873" y="1431" type="curve"/>
      <point x="1001" y="1462"/>
      <point x="1097" y="1536"/>
      <point x="1219" y="1536" type="curve" smooth="yes"/>
      <point x="1298" y="1536"/>
      <point x="1364" y="1499"/>
      <point x="1364" y="1345" type="curve" smooth="yes"/>
      <point x="1364" y="1223"/>
      <point x="1281" y="1050"/>
      <point x="1160" y="1000" type="curve"/>
      <point x="1624" y="1000" type="line"/>
      <point x="1624" y="964" type="line"/>
      <point x="1273" y="964" type="line"/>
      <point x="1008" y="106" type="line" smooth="yes"/>
      <point x="985" y="31"/>
      <point x="1033" y="22"/>
      <point x="1067" y="22" type="curve" smooth="yes"/>
      <point x="1187" y="22"/>
      <point x="1290" y="173"/>
      <point x="1353" y="270" type="curve"/>
      <point x="1384" y="250" type="line"/>
      <point x="1315" y="148"/>
      <point x="1210" y="-15"/>
      <point x="1065" y="-15" type="curve" smooth="yes"/>
      <point x="1010" y="-15"/>
      <point x="942" y="13"/>
      <point x="972" y="110" type="curve" smooth="yes"/>
      <point x="1234" y="963" type="line"/>
      <point x="964" y="963" type="line"/>
      <point x="964" y="996" type="line"/>
      <point x="1025" y="997" type="line" smooth="yes"/>
      <point x="1179" y="1000"/>
      <point x="1328" y="1146"/>
      <point x="1328" y="1350" type="curve" smooth="yes"/>
      <point x="1328" y="1469"/>
      <point x="1290" y="1498"/>
      <point x="1214" y="1498" type="curve" smooth="yes"/>
      <point x="1092" y="1498"/>
      <point x="1041" y="1441"/>
      <point x="874" y="1392" type="curve"/>
      <point x="871" y="1245"/>
      <point x="794" y="1013"/>
      <point x="725" y="875" type="curve"/>
      <point x="687" y="879" type="line"/>
      <point x="684" y="966"/>
      <point x="579" y="981"/>
      <point x="524" y="981" type="curve" smooth="yes"/>
      <point x="399" y="981"/>
      <point x="276" y="917"/>
      <point x="276" y="781" type="curve" smooth="yes"/>
      <point x="276" y="629"/>
      <point x="522" y="538"/>
      <point x="522" y="310" type="curve" smooth="yes"/>
      <point x="522" y="136"/>
      <point x="417" y="-18"/>
      <point x="224" y="-18" type="curve" smooth="yes"/>
      <point x="128" y="-18"/>
      <point x="18" y="24"/>
      <point x="10" y="132" type="curve"/>
      <point x="47" y="132" type="line"/>
      <point x="52" y="50"/>
      <point x="146" y="19"/>
      <point x="225" y="19" type="curve" smooth="yes"/>
      <point x="391" y="19"/>
      <point x="485" y="155"/>
      <point x="485" y="310" type="curve" smooth="yes"/>
      <point x="485" y="530"/>
      <point x="238" y="598"/>
      <point x="238" y="788" type="curve" smooth="yes"/>
      <point x="238" y="940"/>
      <point x="395" y="1016"/>
      <point x="529" y="1016" type="curve" smooth="yes"/>
      <point x="599" y="1016"/>
      <point x="682" y="992"/>
      <point x="712" y="927" type="curve"/>
      <point x="765" y="1049"/>
      <point x="826" y="1220"/>
      <point x="836" y="1383" type="curve"/>
      <point x="787" y="1373"/>
      <point x="736" y="1364"/>
      <point x="675" y="1364" type="curve" smooth="yes"/>
      <point x="606" y="1364"/>
      <point x="474" y="1387"/>
      <point x="474" y="1482" type="curve" smooth="yes"/>
      <point x="474" y="1588"/>
      <point x="609" y="1630"/>
      <point x="703" y="1630" type="curve" smooth="yes"/>
      <point x="821" y="1630"/>
      <point x="865" y="1542"/>
    </contour>
  </outline>
</glyph>
<glyph name="one.op" format="2">
  <advance width="409"/>
  <outline>
    <contour>
      <point x="205" y="999" type="line"/>
      <point x="472" y="999" type="line"/>
      <point x="459" y="961" type="line"/>
      <point x="404" y="958"/>
      <point x="349" y="948"/>
      <point x="333" y="895" type="curve" smooth="yes"/>
      <point x="90" y="104" type="line" smooth="yes"/>
      <point x="82" y="77"/>
      <point x="67" y="56"/>
      <point x="45" y="39" type="curve"/>
      <point x="181" y="39" type="line"/>
      <point x="169" y="1" type="line"/>
      <point x="-88" y="1" type="line"/>
      <point x="-75" y="39" type="line"/>
      <point x="-10" y="43"/>
      <point x="39" y="58"/>
      <point x="52" y="105" type="curve" smooth="yes"/>
      <point x="294" y="895" type="line" smooth="yes"/>
      <point x="303" y="922"/>
      <point x="318" y="944"/>
      <point x="339" y="961" type="curve"/>
      <point x="194" y="961" type="line"/>
    </contour>
  </outline>
</glyph>
<glyph name="three.op" format="2">
  <advance width="807"/>
  <outline>
    <contour>
      <point x="506" y="578" type="curve"/>
      <point x="625" y="592"/>
      <point x="709" y="537"/>
      <point x="709" y="415" type="curve" smooth="yes"/>
      <point x="709" y="129"/>
      <point x="379" y="-136"/>
      <point x="85" y="-136" type="curve" smooth="yes"/>
      <point x="-48" y="-136"/>
      <point x="-122" y="-60"/>
      <point x="-93" y="44" type="curve"/>
      <point x="-55" y="44" type="line"/>
      <point x="-78" y="-35"/>
      <point x="-22" y="-98"/>
      <point x="93" y="-98" type="curve" smooth="yes"/>
      <point x="340" y="-98"/>
      <point x="669" y="129"/>
      <point x="669" y="405" type="curve" smooth="yes"/>
      <point x="669" y="503"/>
      <point x="613" y="544"/>
      <point x="533" y="544" type="curve" smooth="yes"/>
      <point x="480" y="544"/>
      <point x="415" y="529"/>
      <point x="349" y="495" type="curve" smooth="yes"/>
      <point x="218" y="427" type="line"/>
      <point x="207" y="458" type="line"/>
      <point x="342" y="529" type="line" smooth="yes"/>
      <point x="447" y="584"/>
      <point x="706" y="684"/>
      <point x="706" y="838" type="curve" smooth="yes"/>
      <point x="706" y="926"/>
      <point x="618" y="978"/>
      <point x="534" y="978" type="curve" smooth="yes"/>
      <point x="444" y="978"/>
      <point x="343" y="929"/>
      <point x="249" y="840" type="curve"/>
      <point x="226" y="863" type="line"/>
      <point x="311" y="943"/>
      <point x="421" y="1016"/>
      <point x="545" y="1016" type="curve" smooth="yes"/>
      <point x="637" y="1016"/>
      <point x="747" y="961"/>
      <point x="747" y="850" type="curve" smooth="yes"/>
      <point x="747" y="722"/>
      <point x="616" y="641"/>
    </contour>
  </outline>
</glyph>
<glyph name="zero.op" format="2">
  <advance width="970"/>
  <outline>
    <contour>
      <point x="644" y="1015" type="curve" smooth="yes"/>
      <point x="828" y="1015"/>
      <point x="910" y="861"/>
      <point x="910" y="706" type="curve" smooth="yes"/>
      <point x="910" y="409"/>
      <point x="649" y="-15"/>
      <point x="323" y="-15" type="curve" smooth="yes"/>
      <point x="135" y="-15"/>
      <point x="60" y="155"/>
      <point x="60" y="312" type="curve" smooth="yes"/>
      <point x="60" y="610"/>
      <point x="315" y="1015"/>
    </contour>
    <contour>
      <point x="870" y="696" type="curve" smooth="yes"/>
      <point x="870" y="846"/>
      <point x="793" y="977"/>
      <point x="632" y="977" type="curve" smooth="yes"/>
      <point x="326" y="977"/>
      <point x="101" y="584"/>
      <point x="101" y="325" type="curve" smooth="yes"/>
      <point x="101" y="178"/>
      <point x="171" y="22"/>
      <point x="334" y="22" type="curve" smooth="yes"/>
      <point x="636" y="22"/>
      <point x="870" y="445"/>
    </contour>
  </outline>
</glyph>
